<mxfile host="app.diagrams.net" agent="Mozilla/5.0 (Windows NT 10.0; Win64; x64) AppleWebKit/537.36 (KHTML, like Gecko) Chrome/131.0.0.0 Safari/537.36" version="26.2.6">
  <diagram name="Página-1" id="VeuyaBZzTrq6pF1Iweu6">
    <mxGraphModel dx="1389" dy="648" grid="1" gridSize="10" guides="1" tooltips="1" connect="1" arrows="1" fold="1" page="1" pageScale="1" pageWidth="827" pageHeight="1169" math="0" shadow="0">
      <root>
        <mxCell id="0" />
        <mxCell id="1" parent="0" />
        <mxCell id="--0c12tSVRyZGpGiDfZe-1" value="REVISÃO" style="rounded=1;whiteSpace=wrap;html=1;fillColor=#e6d0de;strokeColor=#996185;gradientColor=#d5739d;" parent="1" vertex="1">
          <mxGeometry x="310" y="30" width="180" height="60" as="geometry" />
        </mxCell>
        <mxCell id="--0c12tSVRyZGpGiDfZe-53" value="" style="edgeStyle=orthogonalEdgeStyle;rounded=0;orthogonalLoop=1;jettySize=auto;html=1;" parent="1" source="--0c12tSVRyZGpGiDfZe-2" target="--0c12tSVRyZGpGiDfZe-51" edge="1">
          <mxGeometry relative="1" as="geometry" />
        </mxCell>
        <mxCell id="--0c12tSVRyZGpGiDfZe-61" value="" style="edgeStyle=orthogonalEdgeStyle;rounded=0;orthogonalLoop=1;jettySize=auto;html=1;" parent="1" source="--0c12tSVRyZGpGiDfZe-2" target="--0c12tSVRyZGpGiDfZe-60" edge="1">
          <mxGeometry relative="1" as="geometry" />
        </mxCell>
        <mxCell id="--0c12tSVRyZGpGiDfZe-2" value="funcionario" style="whiteSpace=wrap;html=1;align=center;" parent="1" vertex="1">
          <mxGeometry x="80" y="185" width="110" height="40" as="geometry" />
        </mxCell>
        <mxCell id="--0c12tSVRyZGpGiDfZe-40" value="" style="edgeStyle=orthogonalEdgeStyle;rounded=0;orthogonalLoop=1;jettySize=auto;html=1;" parent="1" source="--0c12tSVRyZGpGiDfZe-12" target="--0c12tSVRyZGpGiDfZe-16" edge="1">
          <mxGeometry relative="1" as="geometry" />
        </mxCell>
        <mxCell id="pgUHg85sqXAqrNUwJkuy-28" style="edgeStyle=orthogonalEdgeStyle;rounded=0;orthogonalLoop=1;jettySize=auto;html=1;entryX=0.5;entryY=0;entryDx=0;entryDy=0;" edge="1" parent="1" source="--0c12tSVRyZGpGiDfZe-12" target="pgUHg85sqXAqrNUwJkuy-27">
          <mxGeometry relative="1" as="geometry">
            <Array as="points">
              <mxPoint x="765" y="350" />
              <mxPoint x="765" y="350" />
            </Array>
          </mxGeometry>
        </mxCell>
        <mxCell id="--0c12tSVRyZGpGiDfZe-12" value="diretoria" style="whiteSpace=wrap;html=1;align=center;" parent="1" vertex="1">
          <mxGeometry x="731.88" y="290" width="76.25" height="40" as="geometry" />
        </mxCell>
        <mxCell id="pgUHg85sqXAqrNUwJkuy-20" style="edgeStyle=orthogonalEdgeStyle;rounded=0;orthogonalLoop=1;jettySize=auto;html=1;entryX=1;entryY=0.5;entryDx=0;entryDy=0;" edge="1" parent="1" source="--0c12tSVRyZGpGiDfZe-13" target="--0c12tSVRyZGpGiDfZe-18">
          <mxGeometry relative="1" as="geometry" />
        </mxCell>
        <mxCell id="pgUHg85sqXAqrNUwJkuy-21" style="edgeStyle=orthogonalEdgeStyle;rounded=0;orthogonalLoop=1;jettySize=auto;html=1;entryX=0;entryY=0.5;entryDx=0;entryDy=0;" edge="1" parent="1" source="--0c12tSVRyZGpGiDfZe-13" target="--0c12tSVRyZGpGiDfZe-16">
          <mxGeometry relative="1" as="geometry" />
        </mxCell>
        <mxCell id="--0c12tSVRyZGpGiDfZe-13" value="departamento" style="whiteSpace=wrap;html=1;align=center;" parent="1" vertex="1">
          <mxGeometry x="590" y="185" width="110" height="40" as="geometry" />
        </mxCell>
        <mxCell id="--0c12tSVRyZGpGiDfZe-16" value="da ordens" style="shape=rhombus;perimeter=rhombusPerimeter;whiteSpace=wrap;html=1;align=center;" parent="1" vertex="1">
          <mxGeometry x="730" y="170" width="80" height="70" as="geometry" />
        </mxCell>
        <mxCell id="--0c12tSVRyZGpGiDfZe-18" value="lotado" style="shape=rhombus;perimeter=rhombusPerimeter;whiteSpace=wrap;html=1;align=center;" parent="1" vertex="1">
          <mxGeometry x="480" y="170" width="80" height="70" as="geometry" />
        </mxCell>
        <mxCell id="--0c12tSVRyZGpGiDfZe-36" value="" style="edgeStyle=orthogonalEdgeStyle;rounded=0;orthogonalLoop=1;jettySize=auto;html=1;" parent="1" source="--0c12tSVRyZGpGiDfZe-29" target="--0c12tSVRyZGpGiDfZe-2" edge="1">
          <mxGeometry relative="1" as="geometry">
            <Array as="points">
              <mxPoint x="110" y="150" />
              <mxPoint x="110" y="150" />
            </Array>
          </mxGeometry>
        </mxCell>
        <mxCell id="--0c12tSVRyZGpGiDfZe-29" value="nome" style="ellipse;whiteSpace=wrap;html=1;align=center;" parent="1" vertex="1">
          <mxGeometry x="70" y="110" width="70" height="30" as="geometry" />
        </mxCell>
        <mxCell id="--0c12tSVRyZGpGiDfZe-33" style="edgeStyle=orthogonalEdgeStyle;rounded=0;orthogonalLoop=1;jettySize=auto;html=1;entryX=-0.015;entryY=0.625;entryDx=0;entryDy=0;entryPerimeter=0;" parent="1" source="--0c12tSVRyZGpGiDfZe-30" target="--0c12tSVRyZGpGiDfZe-2" edge="1">
          <mxGeometry relative="1" as="geometry">
            <mxPoint x="80" y="210" as="targetPoint" />
            <Array as="points">
              <mxPoint x="45" y="210" />
            </Array>
          </mxGeometry>
        </mxCell>
        <mxCell id="--0c12tSVRyZGpGiDfZe-30" value="cpf" style="ellipse;whiteSpace=wrap;html=1;align=center;fontStyle=4;" parent="1" vertex="1">
          <mxGeometry x="10" y="145" width="70" height="40" as="geometry" />
        </mxCell>
        <mxCell id="--0c12tSVRyZGpGiDfZe-32" value="telefone" style="ellipse;shape=doubleEllipse;margin=3;whiteSpace=wrap;html=1;align=center;" parent="1" vertex="1">
          <mxGeometry x="150" y="115" width="90" height="30" as="geometry" />
        </mxCell>
        <mxCell id="--0c12tSVRyZGpGiDfZe-37" style="edgeStyle=orthogonalEdgeStyle;rounded=0;orthogonalLoop=1;jettySize=auto;html=1;entryX=0.583;entryY=0.018;entryDx=0;entryDy=0;entryPerimeter=0;" parent="1" source="--0c12tSVRyZGpGiDfZe-32" target="--0c12tSVRyZGpGiDfZe-2" edge="1">
          <mxGeometry relative="1" as="geometry" />
        </mxCell>
        <mxCell id="pgUHg85sqXAqrNUwJkuy-22" value="" style="edgeStyle=orthogonalEdgeStyle;rounded=0;orthogonalLoop=1;jettySize=auto;html=1;" edge="1" parent="1" source="--0c12tSVRyZGpGiDfZe-49" target="--0c12tSVRyZGpGiDfZe-51">
          <mxGeometry relative="1" as="geometry" />
        </mxCell>
        <mxCell id="--0c12tSVRyZGpGiDfZe-49" value="dependentes" style="whiteSpace=wrap;html=1;align=center;" parent="1" vertex="1">
          <mxGeometry x="80" y="400" width="110" height="40" as="geometry" />
        </mxCell>
        <mxCell id="--0c12tSVRyZGpGiDfZe-51" value="pode ter/ possui" style="shape=rhombus;perimeter=rhombusPerimeter;whiteSpace=wrap;html=1;align=center;" parent="1" vertex="1">
          <mxGeometry x="95" y="290" width="80" height="70" as="geometry" />
        </mxCell>
        <mxCell id="--0c12tSVRyZGpGiDfZe-63" value="" style="edgeStyle=orthogonalEdgeStyle;rounded=0;orthogonalLoop=1;jettySize=auto;html=1;" parent="1" source="--0c12tSVRyZGpGiDfZe-58" target="--0c12tSVRyZGpGiDfZe-18" edge="1">
          <mxGeometry relative="1" as="geometry" />
        </mxCell>
        <mxCell id="pgUHg85sqXAqrNUwJkuy-18" style="edgeStyle=orthogonalEdgeStyle;rounded=0;orthogonalLoop=1;jettySize=auto;html=1;entryX=1;entryY=0.5;entryDx=0;entryDy=0;" edge="1" parent="1" source="--0c12tSVRyZGpGiDfZe-58" target="--0c12tSVRyZGpGiDfZe-60">
          <mxGeometry relative="1" as="geometry" />
        </mxCell>
        <mxCell id="--0c12tSVRyZGpGiDfZe-58" value="cargo" style="whiteSpace=wrap;html=1;align=center;" parent="1" vertex="1">
          <mxGeometry x="340" y="185" width="110" height="40" as="geometry" />
        </mxCell>
        <mxCell id="--0c12tSVRyZGpGiDfZe-60" value="possui" style="shape=rhombus;perimeter=rhombusPerimeter;whiteSpace=wrap;html=1;align=center;" parent="1" vertex="1">
          <mxGeometry x="225" y="170" width="80" height="70" as="geometry" />
        </mxCell>
        <mxCell id="--0c12tSVRyZGpGiDfZe-65" value="codigo" style="ellipse;whiteSpace=wrap;html=1;align=center;fontStyle=4;" parent="1" vertex="1">
          <mxGeometry x="300" y="120" width="70" height="35" as="geometry" />
        </mxCell>
        <mxCell id="--0c12tSVRyZGpGiDfZe-67" style="edgeStyle=orthogonalEdgeStyle;rounded=0;orthogonalLoop=1;jettySize=auto;html=1;entryX=0.137;entryY=0.042;entryDx=0;entryDy=0;entryPerimeter=0;" parent="1" source="--0c12tSVRyZGpGiDfZe-65" target="--0c12tSVRyZGpGiDfZe-58" edge="1">
          <mxGeometry relative="1" as="geometry">
            <Array as="points">
              <mxPoint x="340" y="170" />
              <mxPoint x="355" y="170" />
            </Array>
          </mxGeometry>
        </mxCell>
        <mxCell id="--0c12tSVRyZGpGiDfZe-73" style="edgeStyle=orthogonalEdgeStyle;rounded=0;orthogonalLoop=1;jettySize=auto;html=1;entryX=0.5;entryY=0;entryDx=0;entryDy=0;" parent="1" source="--0c12tSVRyZGpGiDfZe-70" target="--0c12tSVRyZGpGiDfZe-58" edge="1">
          <mxGeometry relative="1" as="geometry" />
        </mxCell>
        <mxCell id="--0c12tSVRyZGpGiDfZe-70" value="setores" style="ellipse;shape=doubleEllipse;margin=3;whiteSpace=wrap;html=1;align=center;" parent="1" vertex="1">
          <mxGeometry x="390" y="125" width="90" height="30" as="geometry" />
        </mxCell>
        <mxCell id="--0c12tSVRyZGpGiDfZe-75" style="edgeStyle=orthogonalEdgeStyle;rounded=0;orthogonalLoop=1;jettySize=auto;html=1;" parent="1" source="--0c12tSVRyZGpGiDfZe-71" target="--0c12tSVRyZGpGiDfZe-58" edge="1">
          <mxGeometry relative="1" as="geometry" />
        </mxCell>
        <mxCell id="--0c12tSVRyZGpGiDfZe-71" value="nome" style="ellipse;whiteSpace=wrap;html=1;align=center;" parent="1" vertex="1">
          <mxGeometry x="365" y="250" width="70" height="30" as="geometry" />
        </mxCell>
        <mxCell id="--0c12tSVRyZGpGiDfZe-76" value="nome" style="ellipse;whiteSpace=wrap;html=1;align=center;" parent="1" vertex="1">
          <mxGeometry x="600" y="250" width="70" height="30" as="geometry" />
        </mxCell>
        <mxCell id="--0c12tSVRyZGpGiDfZe-77" value="projetos" style="ellipse;shape=doubleEllipse;margin=3;whiteSpace=wrap;html=1;align=center;" parent="1" vertex="1">
          <mxGeometry x="640" y="127.5" width="90" height="30" as="geometry" />
        </mxCell>
        <mxCell id="--0c12tSVRyZGpGiDfZe-78" value="codigo" style="ellipse;whiteSpace=wrap;html=1;align=center;fontStyle=4;" parent="1" vertex="1">
          <mxGeometry x="550" y="122.5" width="70" height="35" as="geometry" />
        </mxCell>
        <mxCell id="--0c12tSVRyZGpGiDfZe-79" style="edgeStyle=orthogonalEdgeStyle;rounded=0;orthogonalLoop=1;jettySize=auto;html=1;entryX=0.176;entryY=-0.006;entryDx=0;entryDy=0;entryPerimeter=0;" parent="1" source="--0c12tSVRyZGpGiDfZe-78" target="--0c12tSVRyZGpGiDfZe-13" edge="1">
          <mxGeometry relative="1" as="geometry" />
        </mxCell>
        <mxCell id="--0c12tSVRyZGpGiDfZe-80" style="edgeStyle=orthogonalEdgeStyle;rounded=0;orthogonalLoop=1;jettySize=auto;html=1;entryX=0.552;entryY=0.03;entryDx=0;entryDy=0;entryPerimeter=0;" parent="1" source="--0c12tSVRyZGpGiDfZe-77" target="--0c12tSVRyZGpGiDfZe-13" edge="1">
          <mxGeometry relative="1" as="geometry" />
        </mxCell>
        <mxCell id="--0c12tSVRyZGpGiDfZe-87" style="edgeStyle=orthogonalEdgeStyle;rounded=0;orthogonalLoop=1;jettySize=auto;html=1;entryX=0.41;entryY=0.994;entryDx=0;entryDy=0;entryPerimeter=0;" parent="1" source="--0c12tSVRyZGpGiDfZe-76" target="--0c12tSVRyZGpGiDfZe-13" edge="1">
          <mxGeometry relative="1" as="geometry" />
        </mxCell>
        <mxCell id="--0c12tSVRyZGpGiDfZe-93" style="edgeStyle=orthogonalEdgeStyle;rounded=0;orthogonalLoop=1;jettySize=auto;html=1;entryX=0;entryY=0.5;entryDx=0;entryDy=0;" parent="1" source="--0c12tSVRyZGpGiDfZe-88" target="--0c12tSVRyZGpGiDfZe-12" edge="1">
          <mxGeometry relative="1" as="geometry" />
        </mxCell>
        <mxCell id="--0c12tSVRyZGpGiDfZe-88" value="codigo" style="ellipse;whiteSpace=wrap;html=1;align=center;fontStyle=4;" parent="1" vertex="1">
          <mxGeometry x="640" y="297.5" width="70" height="35" as="geometry" />
        </mxCell>
        <mxCell id="pgUHg85sqXAqrNUwJkuy-23" style="edgeStyle=orthogonalEdgeStyle;rounded=0;orthogonalLoop=1;jettySize=auto;html=1;" edge="1" parent="1" source="--0c12tSVRyZGpGiDfZe-89">
          <mxGeometry relative="1" as="geometry">
            <mxPoint x="740" y="330" as="targetPoint" />
            <Array as="points">
              <mxPoint x="720" y="348" />
              <mxPoint x="720" y="349" />
              <mxPoint x="740" y="349" />
            </Array>
          </mxGeometry>
        </mxCell>
        <mxCell id="--0c12tSVRyZGpGiDfZe-89" value="demandas" style="ellipse;shape=doubleEllipse;margin=3;whiteSpace=wrap;html=1;align=center;" parent="1" vertex="1">
          <mxGeometry x="610" y="348" width="90" height="30" as="geometry" />
        </mxCell>
        <mxCell id="pgUHg85sqXAqrNUwJkuy-2" value="" style="edgeStyle=orthogonalEdgeStyle;rounded=0;orthogonalLoop=1;jettySize=auto;html=1;" edge="1" parent="1" source="--0c12tSVRyZGpGiDfZe-90" target="--0c12tSVRyZGpGiDfZe-12">
          <mxGeometry relative="1" as="geometry">
            <Array as="points">
              <mxPoint x="800" y="370" />
              <mxPoint x="800" y="370" />
            </Array>
          </mxGeometry>
        </mxCell>
        <mxCell id="--0c12tSVRyZGpGiDfZe-90" value="chefe" style="ellipse;whiteSpace=wrap;html=1;align=center;" parent="1" vertex="1">
          <mxGeometry x="770" y="362.5" width="55" height="20" as="geometry" />
        </mxCell>
        <mxCell id="pgUHg85sqXAqrNUwJkuy-6" value="" style="edgeStyle=orthogonalEdgeStyle;rounded=0;orthogonalLoop=1;jettySize=auto;html=1;" edge="1" parent="1" source="pgUHg85sqXAqrNUwJkuy-3" target="--0c12tSVRyZGpGiDfZe-49">
          <mxGeometry relative="1" as="geometry" />
        </mxCell>
        <mxCell id="pgUHg85sqXAqrNUwJkuy-3" value="cpf" style="ellipse;whiteSpace=wrap;html=1;align=center;fontStyle=4;" vertex="1" parent="1">
          <mxGeometry x="235" y="400" width="70" height="40" as="geometry" />
        </mxCell>
        <mxCell id="pgUHg85sqXAqrNUwJkuy-4" value="nome" style="ellipse;whiteSpace=wrap;html=1;align=center;" vertex="1" parent="1">
          <mxGeometry x="175" y="480" width="70" height="30" as="geometry" />
        </mxCell>
        <mxCell id="pgUHg85sqXAqrNUwJkuy-5" value="caracteristicas" style="ellipse;shape=doubleEllipse;margin=3;whiteSpace=wrap;html=1;align=center;" vertex="1" parent="1">
          <mxGeometry x="50" y="480" width="90" height="30" as="geometry" />
        </mxCell>
        <mxCell id="pgUHg85sqXAqrNUwJkuy-7" style="edgeStyle=orthogonalEdgeStyle;rounded=0;orthogonalLoop=1;jettySize=auto;html=1;entryX=0.834;entryY=1.024;entryDx=0;entryDy=0;entryPerimeter=0;" edge="1" parent="1" source="pgUHg85sqXAqrNUwJkuy-4" target="--0c12tSVRyZGpGiDfZe-49">
          <mxGeometry relative="1" as="geometry" />
        </mxCell>
        <mxCell id="pgUHg85sqXAqrNUwJkuy-8" style="edgeStyle=orthogonalEdgeStyle;rounded=0;orthogonalLoop=1;jettySize=auto;html=1;entryX=0.219;entryY=1.024;entryDx=0;entryDy=0;entryPerimeter=0;" edge="1" parent="1" source="pgUHg85sqXAqrNUwJkuy-5" target="--0c12tSVRyZGpGiDfZe-49">
          <mxGeometry relative="1" as="geometry" />
        </mxCell>
        <mxCell id="pgUHg85sqXAqrNUwJkuy-9" value="1" style="text;html=1;align=center;verticalAlign=middle;resizable=0;points=[];autosize=1;strokeColor=none;fillColor=none;" vertex="1" parent="1">
          <mxGeometry x="310" y="180" width="30" height="30" as="geometry" />
        </mxCell>
        <mxCell id="pgUHg85sqXAqrNUwJkuy-10" value="N" style="text;html=1;align=center;verticalAlign=middle;resizable=0;points=[];autosize=1;strokeColor=none;fillColor=none;" vertex="1" parent="1">
          <mxGeometry x="195" y="178" width="30" height="30" as="geometry" />
        </mxCell>
        <mxCell id="pgUHg85sqXAqrNUwJkuy-11" value="1" style="text;html=1;align=center;verticalAlign=middle;resizable=0;points=[];autosize=1;strokeColor=none;fillColor=none;" vertex="1" parent="1">
          <mxGeometry x="560" y="185" width="30" height="30" as="geometry" />
        </mxCell>
        <mxCell id="pgUHg85sqXAqrNUwJkuy-12" value="N" style="text;html=1;align=center;verticalAlign=middle;resizable=0;points=[];autosize=1;strokeColor=none;fillColor=none;" vertex="1" parent="1">
          <mxGeometry x="450" y="180" width="30" height="30" as="geometry" />
        </mxCell>
        <mxCell id="pgUHg85sqXAqrNUwJkuy-13" value="N" style="text;html=1;align=center;verticalAlign=middle;resizable=0;points=[];autosize=1;strokeColor=none;fillColor=none;" vertex="1" parent="1">
          <mxGeometry x="700" y="180" width="30" height="30" as="geometry" />
        </mxCell>
        <mxCell id="pgUHg85sqXAqrNUwJkuy-14" value="1" style="text;html=1;align=center;verticalAlign=middle;resizable=0;points=[];autosize=1;strokeColor=none;fillColor=none;" vertex="1" parent="1">
          <mxGeometry x="745" y="278" width="30" height="30" as="geometry" />
        </mxCell>
        <mxCell id="pgUHg85sqXAqrNUwJkuy-15" value="N" style="text;html=1;align=center;verticalAlign=middle;resizable=0;points=[];autosize=1;strokeColor=none;fillColor=none;" vertex="1" parent="1">
          <mxGeometry x="145" y="378" width="30" height="30" as="geometry" />
        </mxCell>
        <mxCell id="pgUHg85sqXAqrNUwJkuy-16" value="1" style="text;html=1;align=center;verticalAlign=middle;resizable=0;points=[];autosize=1;strokeColor=none;fillColor=none;" vertex="1" parent="1">
          <mxGeometry x="135" y="228" width="30" height="30" as="geometry" />
        </mxCell>
        <mxCell id="pgUHg85sqXAqrNUwJkuy-27" value="comanda" style="shape=rhombus;perimeter=rhombusPerimeter;whiteSpace=wrap;html=1;align=center;" vertex="1" parent="1">
          <mxGeometry x="730" y="390" width="70" height="50" as="geometry" />
        </mxCell>
        <mxCell id="pgUHg85sqXAqrNUwJkuy-29" value="industria" style="whiteSpace=wrap;html=1;" vertex="1" parent="1">
          <mxGeometry x="710" y="480" width="110" height="50" as="geometry" />
        </mxCell>
        <mxCell id="pgUHg85sqXAqrNUwJkuy-31" style="edgeStyle=orthogonalEdgeStyle;rounded=0;orthogonalLoop=1;jettySize=auto;html=1;entryX=0.5;entryY=1.053;entryDx=0;entryDy=0;entryPerimeter=0;" edge="1" parent="1" source="pgUHg85sqXAqrNUwJkuy-29" target="pgUHg85sqXAqrNUwJkuy-27">
          <mxGeometry relative="1" as="geometry" />
        </mxCell>
        <mxCell id="pgUHg85sqXAqrNUwJkuy-32" value="locadoras" style="ellipse;shape=doubleEllipse;margin=3;whiteSpace=wrap;html=1;align=center;" vertex="1" parent="1">
          <mxGeometry x="610" y="440" width="90" height="30" as="geometry" />
        </mxCell>
        <mxCell id="pgUHg85sqXAqrNUwJkuy-35" value="" style="edgeStyle=orthogonalEdgeStyle;rounded=0;orthogonalLoop=1;jettySize=auto;html=1;" edge="1" parent="1" source="pgUHg85sqXAqrNUwJkuy-33" target="pgUHg85sqXAqrNUwJkuy-29">
          <mxGeometry relative="1" as="geometry" />
        </mxCell>
        <mxCell id="pgUHg85sqXAqrNUwJkuy-33" value="cnpj" style="ellipse;whiteSpace=wrap;html=1;align=center;fontStyle=4;" vertex="1" parent="1">
          <mxGeometry x="600" y="487.5" width="70" height="35" as="geometry" />
        </mxCell>
        <mxCell id="pgUHg85sqXAqrNUwJkuy-37" value="" style="edgeStyle=orthogonalEdgeStyle;rounded=0;orthogonalLoop=1;jettySize=auto;html=1;" edge="1" parent="1" source="pgUHg85sqXAqrNUwJkuy-34" target="pgUHg85sqXAqrNUwJkuy-29">
          <mxGeometry relative="1" as="geometry" />
        </mxCell>
        <mxCell id="pgUHg85sqXAqrNUwJkuy-34" value="cidade" style="ellipse;whiteSpace=wrap;html=1;align=center;" vertex="1" parent="1">
          <mxGeometry x="730" y="567" width="65" height="35" as="geometry" />
        </mxCell>
        <mxCell id="pgUHg85sqXAqrNUwJkuy-36" style="edgeStyle=orthogonalEdgeStyle;rounded=0;orthogonalLoop=1;jettySize=auto;html=1;entryX=0.18;entryY=0.01;entryDx=0;entryDy=0;entryPerimeter=0;" edge="1" parent="1" source="pgUHg85sqXAqrNUwJkuy-32" target="pgUHg85sqXAqrNUwJkuy-29">
          <mxGeometry relative="1" as="geometry" />
        </mxCell>
        <mxCell id="pgUHg85sqXAqrNUwJkuy-38" value="1" style="text;html=1;align=center;verticalAlign=middle;resizable=0;points=[];autosize=1;strokeColor=none;fillColor=none;" vertex="1" parent="1">
          <mxGeometry x="733.75" y="457.5" width="30" height="30" as="geometry" />
        </mxCell>
        <mxCell id="pgUHg85sqXAqrNUwJkuy-40" value="1" style="text;html=1;align=center;verticalAlign=middle;resizable=0;points=[];autosize=1;strokeColor=none;fillColor=none;" vertex="1" parent="1">
          <mxGeometry x="740" y="330" width="30" height="30" as="geometry" />
        </mxCell>
      </root>
    </mxGraphModel>
  </diagram>
</mxfile>
